<svg width="277" height="277" viewBox="0 0 277 277" fill="none" xmlns="http://www.w3.org/2000/svg">
<circle cx="138.369" cy="138.748" r="138.044" fill="#1D1D1B"/>
<path fill-rule="evenodd" clip-rule="evenodd" d="M146.202 60.3137C151.597 65.734 151.597 74.5221 146.202 79.9425L121.573 104.687L208.054 104.687C215.683 104.687 221.869 110.901 221.869 118.567C221.869 126.232 215.683 132.446 208.054 132.446L54.8685 132.446L126.665 60.3137C132.06 54.8933 140.807 54.8933 146.202 60.3137Z" fill="#41FBB3"/>
<path fill-rule="evenodd" clip-rule="evenodd" d="M130.535 217.183C125.14 211.763 125.14 202.975 130.535 197.554L155.164 172.81L68.6835 172.81C61.0537 172.81 54.8685 166.596 54.8685 158.93C54.8685 151.265 61.0537 145.05 68.6835 145.05L221.869 145.05L150.072 217.183C144.677 222.603 135.93 222.603 130.535 217.183Z" fill="#41FBB3"/>
</svg>
