<svg width="277" height="277" viewBox="0 0 277 277" fill="none" xmlns="http://www.w3.org/2000/svg">
<circle cx="138.369" cy="138.574" r="138.044" fill="#1D1D1B"/>
<path fill-rule="evenodd" clip-rule="evenodd" d="M146.202 60.1394C151.597 65.5597 151.597 74.3478 146.202 79.7682L121.573 104.513L208.054 104.513C215.683 104.513 221.869 110.727 221.869 118.392C221.869 126.058 215.683 132.272 208.054 132.272L54.8685 132.272L126.665 60.1394C132.06 54.719 140.807 54.719 146.202 60.1394Z" fill="white"/>
<path fill-rule="evenodd" clip-rule="evenodd" d="M130.535 217.009C125.14 211.588 125.14 202.8 130.535 197.38L155.164 172.636L68.6835 172.635C61.0537 172.635 54.8685 166.421 54.8685 158.756C54.8685 151.09 61.0537 144.876 68.6835 144.876L221.869 144.876L150.072 217.009C144.677 222.429 135.93 222.429 130.535 217.009Z" fill="white"/>
</svg>
